HIERARCHY
ROOT RootJoint
{
    OFFSET   0.000000   0.000000   0.000000
    CHANNELS 6 Xposition Yposition Zposition Xrotation Yrotation Zrotation
    JOINT pelvis_lowerback
    {
        OFFSET   0.000000   0.093605   0.000000
        CHANNELS 3 Xrotation Yrotation Zrotation
        JOINT lowerback_torso
        {
            OFFSET   0.000000   0.100000   0.000000
            CHANNELS 3 Xrotation Yrotation Zrotation
            JOINT torso_head
            {
                OFFSET   0.000000   0.282350   0.000000
                CHANNELS 3 Xrotation Yrotation Zrotation
                End Site
                {
                    OFFSET   0.000000   0.192650   0.000000
                }
            }
            JOINT rTorso_Clavicle
            {
                OFFSET  -0.001000   0.157500   0.000000
                CHANNELS 3 Xrotation Yrotation Zrotation
                JOINT rShoulder
                {
                    OFFSET  -0.117647   0.000000   0.000000
                    CHANNELS 3 Xrotation Yrotation Zrotation
                    JOINT rElbow
                    {
                        OFFSET  -0.245000   0.000000   0.000000
                        CHANNELS 3 Xrotation Yrotation Zrotation
                        JOINT rWrist
                        {
                            OFFSET  -0.240000   0.000000   0.000000
                            CHANNELS 3 Xrotation Yrotation Zrotation
                            End Site
                            {
                                OFFSET  -0.116353  -0.002500   0.000000
                            }
                        }
                    }
                }
            }
            JOINT lTorso_Clavicle
            {
                OFFSET   0.001000   0.157500   0.000000
                CHANNELS 3 Xrotation Yrotation Zrotation
                JOINT lShoulder
                {
                    OFFSET   0.117647   0.000000   0.000000
                    CHANNELS 3 Xrotation Yrotation Zrotation
                    JOINT lElbow
                    {
                        OFFSET   0.245000   0.000000   0.000000
                        CHANNELS 3 Xrotation Yrotation Zrotation
                        JOINT lWrist
                        {
                            OFFSET   0.240000   0.000000   0.000000
                            CHANNELS 3 Xrotation Yrotation Zrotation
                            End Site
                            {
                                OFFSET   0.116353  -0.002500   0.000000
                            }
                        }
                    }
                }
            }
        }
    }
    JOINT rHip
    {
        OFFSET  -0.100000  -0.051395   0.000000
        CHANNELS 3 Xrotation Yrotation Zrotation
        JOINT rKnee
        {
            OFFSET   0.000000  -0.410000   0.000000
            CHANNELS 3 Xrotation Yrotation Zrotation
            JOINT rAnkle
            {
                OFFSET   0.000000  -0.390000   0.000000
                CHANNELS 3 Xrotation Yrotation Zrotation
                JOINT rToeJoint
                {
                    OFFSET   0.000000  -0.050000   0.130000
                    CHANNELS 3 Xrotation Yrotation Zrotation
                    End Site
                    {
                        OFFSET  -0.010000   0.002000   0.060000
                    }
                }
            }
        }
    }
    JOINT lHip
    {
        OFFSET   0.100000  -0.051395   0.000000
        CHANNELS 3 Xrotation Yrotation Zrotation
        JOINT lKnee
        {
            OFFSET   0.000000  -0.410000   0.000000
            CHANNELS 3 Xrotation Yrotation Zrotation
            JOINT lAnkle
            {
                OFFSET   0.000000  -0.390000   0.000000
                CHANNELS 3 Xrotation Yrotation Zrotation
                JOINT lToeJoint
                {
                    OFFSET   0.000000  -0.050000   0.130000
                    CHANNELS 3 Xrotation Yrotation Zrotation
                    End Site
                    {
                        OFFSET   0.010000   0.002000   0.060000
                    }
                }
            }
        }
    }
}
MOTION
Frames: 5
Frame Time:   0.008333
 -2.390278   0.914663   4.246824  -5.367631 -19.184491   4.034980   7.763457   0.666390   0.802735  -0.354490   0.467220  -0.848249  -1.285754  -0.647977   0.769469  -5.042588   9.257870  -1.825124 -23.325694  21.813272  57.641047 -179.998416  61.545220 179.998463  -1.200112   6.266829   1.639878  -1.726610  -3.745790  -1.144019 -12.586869  -2.495957 -58.831760 -179.999596 -53.000961 -179.999228  -0.461308  -9.826926   3.281649  -9.274589 -10.960842 -11.614999  23.106256   0.001543  -0.002421 -10.201263 -11.388454  -2.580936   0.616568  -0.000270  -0.000021  -1.767709   4.435082  13.404968  18.959555   0.005257  -0.000967  10.074056   4.656783  -4.230598  -7.310172   0.011196  -0.004236
 -2.390520   0.915391   4.246130  -5.306619 -19.155342   4.050785   7.772183   0.682509   0.799788  -0.401038   0.459216  -0.859207  -1.352124  -0.699234   0.797948  -5.008255   9.065581  -1.572305 -23.006979  21.640845  57.407408 -179.998336  61.432704 179.998383  -1.220162   6.322362   1.656222  -1.616567  -3.501899  -1.318586 -11.857241  -2.736558 -58.756615 -179.998975 -53.202258 -179.998281  -0.436599  -9.958729   3.244763  -9.118549 -10.950328 -11.525868  22.624108   0.001313  -0.002304  -9.877589 -11.473494  -2.468711   0.550365  -0.000139  -0.000020  -1.900721   4.416488  13.160996  19.669459   0.005721  -0.001216   9.245642   4.538712  -4.210418  -6.876200   0.009888  -0.004233
 -2.390646   0.916087   4.245550  -5.255129 -19.139565   4.074696   7.766242   0.697898   0.790877  -0.433256   0.450495  -0.871604  -1.420964  -0.747231   0.824805  -4.950706   8.856970  -1.323768 -22.683207  21.461541  57.185187 -179.998282  61.331569 179.998331  -1.238368   6.350846   1.664696  -1.470454  -3.247696  -1.497733 -11.133491  -2.947142 -58.683828 -179.998507 -53.407042 -179.997534  -0.421224  -9.984240   3.134993  -8.960193 -10.930688 -11.459543  22.154978   0.001092  -0.002158  -9.568481 -11.549508  -2.366683   0.495665  -0.000057  -0.000018  -1.995499   4.408521  12.921579  20.387548   0.005980  -0.001459   8.473818   4.428161  -4.193236  -6.487340   0.008654  -0.004099
 -2.390657   0.916729   4.245014  -5.203854 -19.125260   4.102073   7.753332   0.708847   0.782773  -0.460930   0.439861  -0.884310  -1.487543  -0.792266   0.849811  -4.886339   8.648595  -1.088932 -22.370857  21.285406  56.975987 -179.998274  61.238876 179.998324  -1.255217   6.359047   1.664017  -1.318627  -2.998685  -1.672651 -10.443340  -3.136249 -58.614832 -179.998206 -53.602920 -179.997036  -0.409440  -9.960718   3.011982  -8.815447 -10.908750 -11.407976  21.708654   0.000886  -0.002005  -9.274132 -11.621266  -2.272331   0.449954  -0.000006  -0.000015  -2.065462   4.406228  12.698186  21.074881   0.005995  -0.001615   7.754635   4.324901  -4.178735  -6.128817   0.007535  -0.003879
 -2.390554   0.917315   4.244494  -5.150516 -19.107383   4.130951   7.737568   0.715422   0.776813  -0.487123   0.426920  -0.895968  -1.550598  -0.834484   0.873130  -4.821772   8.447683  -0.869035 -22.075656  21.116349  56.779973 -179.998307  61.153160 179.998357  -1.270978   6.357079   1.657613  -1.171568  -2.762395  -1.839456  -9.794310  -3.309730 -58.549314 -179.998032 -53.787498 -179.996743  -0.399168  -9.919938   2.890710  -8.688013 -10.887299 -11.367921  21.286610   0.000697  -0.001858  -8.993052 -11.691260  -2.184181   0.411574   0.000024  -0.000013  -2.118143   4.407219  12.494473  21.723224   0.005821  -0.001671   7.083916   4.228559  -4.166503  -5.799175   0.006530  -0.003597
